<?xml version="1.0" standalone="no"?>
<svg xmlns:xlink="http://www.w3.org/1999/xlink" id="wave" style="transform:rotate(180deg); transition: 0.3s" viewBox="0 0 1440 490" version="1.1" xmlns="http://www.w3.org/2000/svg"><defs><linearGradient id="sw-gradient-0" x1="0" x2="0" y1="1" y2="0"><stop stop-color="rgba(243, 62, 237.124, 1)" offset="0%"/><stop stop-color="rgba(255, 179, 11, 1)" offset="100%"/></linearGradient></defs><path style="transform:translate(0, 0px); opacity:1" fill="url(#sw-gradient-0)" d="M0,147L10,179.7C20,212,40,278,60,326.7C80,376,100,408,120,416.5C140,425,160,408,180,359.3C200,310,220,229,240,163.3C260,98,280,49,300,81.7C320,114,340,229,360,228.7C380,229,400,114,420,89.8C440,65,460,131,480,187.8C500,245,520,294,540,277.7C560,261,580,180,600,187.8C620,196,640,294,660,326.7C680,359,700,327,720,277.7C740,229,760,163,780,163.3C800,163,820,229,840,212.3C860,196,880,98,900,114.3C920,131,940,261,960,302.2C980,343,1000,294,1020,228.7C1040,163,1060,82,1080,40.8C1100,0,1120,0,1140,40.8C1160,82,1180,163,1200,236.8C1220,310,1240,376,1260,334.8C1280,294,1300,147,1320,122.5C1340,98,1360,196,1380,269.5C1400,343,1420,392,1430,416.5L1440,441L1440,490L1430,490C1420,490,1400,490,1380,490C1360,490,1340,490,1320,490C1300,490,1280,490,1260,490C1240,490,1220,490,1200,490C1180,490,1160,490,1140,490C1120,490,1100,490,1080,490C1060,490,1040,490,1020,490C1000,490,980,490,960,490C940,490,920,490,900,490C880,490,860,490,840,490C820,490,800,490,780,490C760,490,740,490,720,490C700,490,680,490,660,490C640,490,620,490,600,490C580,490,560,490,540,490C520,490,500,490,480,490C460,490,440,490,420,490C400,490,380,490,360,490C340,490,320,490,300,490C280,490,260,490,240,490C220,490,200,490,180,490C160,490,140,490,120,490C100,490,80,490,60,490C40,490,20,490,10,490L0,490Z"/></svg>