<?xml version="1.0" standalone="no"?>
<svg xmlns:xlink="http://www.w3.org/1999/xlink" id="wave" style="transform:rotate(0deg); transition: 0.3s" viewBox="0 0 1440 490" version="1.1" xmlns="http://www.w3.org/2000/svg"><defs><linearGradient id="sw-gradient-0" x1="0" x2="0" y1="1" y2="0"><stop stop-color="rgba(243, 62, 194.205, 1)" offset="0%"/><stop stop-color="rgba(255, 179, 11, 1)" offset="100%"/></linearGradient></defs><path style="transform:translate(0, 0px); opacity:1" fill="url(#sw-gradient-0)" d="M0,441L10,400.2C20,359,40,278,60,204.2C80,131,100,65,120,81.7C140,98,160,196,180,236.8C200,278,220,261,240,261.3C260,261,280,278,300,253.2C320,229,340,163,360,130.7C380,98,400,98,420,138.8C440,180,460,261,480,285.8C500,310,520,278,540,261.3C560,245,580,245,600,204.2C620,163,640,82,660,114.3C680,147,700,294,720,318.5C740,343,760,245,780,236.8C800,229,820,310,840,359.3C860,408,880,425,900,416.5C920,408,940,376,960,351.2C980,327,1000,310,1020,277.7C1040,245,1060,196,1080,220.5C1100,245,1120,343,1140,375.7C1160,408,1180,376,1200,302.2C1220,229,1240,114,1260,122.5C1280,131,1300,261,1320,334.8C1340,408,1360,425,1380,400.2C1400,376,1420,310,1430,277.7L1440,245L1440,490L1430,490C1420,490,1400,490,1380,490C1360,490,1340,490,1320,490C1300,490,1280,490,1260,490C1240,490,1220,490,1200,490C1180,490,1160,490,1140,490C1120,490,1100,490,1080,490C1060,490,1040,490,1020,490C1000,490,980,490,960,490C940,490,920,490,900,490C880,490,860,490,840,490C820,490,800,490,780,490C760,490,740,490,720,490C700,490,680,490,660,490C640,490,620,490,600,490C580,490,560,490,540,490C520,490,500,490,480,490C460,490,440,490,420,490C400,490,380,490,360,490C340,490,320,490,300,490C280,490,260,490,240,490C220,490,200,490,180,490C160,490,140,490,120,490C100,490,80,490,60,490C40,490,20,490,10,490L0,490Z"/></svg>